<svg xmlns="http://www.w3.org/2000/svg" width="76" height="22" viewBox="0 0 76 22"><title>dark</title><path fill="#E8F7FF" fill-rule="nonzero" d="M0 2.25h7.8v2.587H3.274v2.97h4.102v2.627H3.274v5.295H0V2.25Zm8.834 3.98h3.052v9.499H8.834V6.23Zm0-3.98h3.052v2.748H8.834V2.25Zm4.49 3.98h2.728l.222.89c.31-.39.667-.653 1.071-.788.404-.135.761-.202 1.071-.202.135 0 .263.007.384.02.121.014.23.034.323.06v2.587a3.718 3.718 0 0 0-.768-.08c-.606 0-1.087.11-1.444.333-.357.222-.536.623-.536 1.202v5.477h-3.051V6.23Zm9.38 5.72c.026.606.255 1.027.687 1.263.43.236 1.044.353 1.839.353.255 0 .542-.016.858-.05.317-.034.603-.084.86-.152v2.284c-.149.04-.33.074-.546.1a19.606 19.606 0 0 1-1.314.122c-.216.014-.397.02-.546.02-1.508 0-2.667-.363-3.475-1.09-.809-.728-1.213-1.84-1.213-3.335V10.07c0-.687.105-1.286.313-1.798.21-.512.496-.936.86-1.273.363-.337.794-.59 1.293-.758a5.02 5.02 0 0 1 1.616-.253c.485 0 .95.075 1.395.223.444.148.838.384 1.182.707.343.323.616.744.818 1.263.202.519.303 1.148.303 1.89v1.879h-4.93Zm2.283-1.9c0-.687-.098-1.145-.293-1.374-.195-.229-.468-.343-.818-.343-.35 0-.637.114-.86.343-.222.23-.333.687-.333 1.374h2.304Zm11.748 1.233c0 .822-.081 1.519-.243 2.091-.162.573-.384 1.038-.667 1.395-.283.357-.62.616-1.01.778-.39.161-.809.242-1.253.242-.485 0-.893-.07-1.223-.212a3.445 3.445 0 0 1-.96-.636l-.181.788h-2.79V2.25h2.971v4.628c.31-.31.634-.536.97-.677.337-.142.755-.213 1.253-.213.445 0 .86.075 1.243.223.384.148.717.397 1 .747.283.35.502.812.657 1.385.155.572.233 1.29.233 2.152v.788Zm-3.092-.707c0-.768-.081-1.307-.243-1.617-.161-.31-.458-.465-.889-.465a.983.983 0 0 0-.566.152 1.022 1.022 0 0 0-.343.394 1.92 1.92 0 0 0-.172.556c-.034.208-.05.42-.05.636v1.314c0 .215.013.427.04.636.027.209.08.394.162.556.08.162.191.293.333.394.141.101.327.151.556.151.43 0 .734-.178.909-.535.175-.357.263-.872.263-1.546v-.626ZM37.99 6.23h2.728l.222.89c.31-.392.667-.654 1.071-.789.404-.135.761-.202 1.071-.202.135 0 .263.007.384.02.121.014.23.034.323.06v2.587a3.718 3.718 0 0 0-.767-.08c-.607 0-1.088.11-1.445.333-.357.222-.536.623-.536 1.202v5.477h-3.051V6.23Zm6.712 0h3.052v9.498h-3.052V6.23Zm0-3.981h3.052v2.748h-3.052V2.25Zm4.308 8.366c0-.822.084-1.519.252-2.091.169-.573.398-1.038.687-1.395.29-.357.63-.616 1.02-.778.392-.161.81-.242 1.254-.242.485 0 .886.07 1.202.212.317.141.63.354.94.636V2.25h2.97v13.479H54.69l-.202-.85c-.31.338-.623.604-.94.8-.316.194-.77.292-1.364.292-.444 0-.862-.074-1.252-.222A2.366 2.366 0 0 1 49.92 15c-.284-.35-.506-.812-.668-1.384-.161-.573-.242-1.29-.242-2.152v-.849Zm3.092.768c0 .768.087 1.307.262 1.617.175.31.479.464.91.464.229 0 .414-.05.555-.151.142-.101.253-.233.334-.394a1.73 1.73 0 0 0 .161-.556 4.97 4.97 0 0 0 .04-.637v-1.374c0-.215-.01-.427-.03-.636a1.726 1.726 0 0 0-.14-.556.974.974 0 0 0-.324-.394c-.142-.101-.327-.152-.556-.152-.431 0-.74.179-.93.536-.188.357-.282.872-.282 1.546v.687Zm9.581-.303c0 .768.088 1.307.263 1.616.175.31.478.465.91.465.229 0 .414-.05.555-.151.142-.101.253-.233.334-.394a1.73 1.73 0 0 0 .161-.556 4.97 4.97 0 0 0 .04-.637v-1.192c0-.215-.01-.428-.03-.636a1.726 1.726 0 0 0-.141-.556.974.974 0 0 0-.323-.394c-.142-.101-.327-.152-.556-.152-.431 0-.741.179-.93.536-.188.357-.283.872-.283 1.546v.505Zm2.264 3.637c-.27.283-.57.512-.9.687-.33.175-.757.263-1.283.263-.444 0-.862-.074-1.253-.222a2.366 2.366 0 0 1-1.01-.748c-.283-.35-.505-.812-.667-1.384-.162-.573-.242-1.29-.242-2.152v-.667c0-.822.084-1.52.252-2.092.169-.572.398-1.037.687-1.394.29-.357.63-.616 1.02-.778.392-.162.81-.243 1.254-.243.592 0 1.05.091 1.374.273.323.182.62.455.889.819l.202-.85h2.647v8.852c0 .74-.074 1.401-.222 1.98a3.361 3.361 0 0 1-.768 1.465c-.364.398-.855.701-1.475.91-.62.209-1.401.313-2.344.313-.162 0-.354-.007-.576-.02a12.96 12.96 0 0 1-.687-.06 18.957 18.957 0 0 1-.687-.092 6.304 6.304 0 0 1-.576-.11v-2.406c.27.054.61.111 1.02.172.411.06.785.091 1.122.091.485 0 .876-.047 1.172-.141.296-.095.522-.223.677-.384.155-.162.256-.36.303-.596.047-.236.07-.496.07-.778v-.708Zm7.076-2.768c.027.606.256 1.027.687 1.263.431.236 1.044.353 1.839.353.256 0 .542-.016.859-.05.316-.034.603-.084.859-.152v2.284c-.149.04-.33.074-.546.1a19.606 19.606 0 0 1-1.314.122c-.215.014-.397.02-.545.02-1.51 0-2.668-.363-3.476-1.09-.808-.728-1.212-1.84-1.212-3.335V10.07c0-.687.104-1.286.313-1.798.209-.512.495-.936.859-1.273.363-.337.794-.59 1.293-.758a5.02 5.02 0 0 1 1.617-.253c.485 0 .95.075 1.394.223.444.148.839.384 1.182.707.344.323.616.744.818 1.263.203.519.304 1.148.304 1.89v1.879h-4.931Zm2.283-1.9c0-.687-.097-1.145-.293-1.374-.195-.229-.468-.343-.818-.343-.35 0-.637.114-.859.343-.222.23-.333.687-.333 1.374h2.303Z"/></svg>