<svg xmlns="http://www.w3.org/2000/svg" width="1514" height="375" viewBox="0 0 1514 375"><title>light</title><path fill="#36656B" fill-rule="nonzero" d="M491.075 87.1v34.375h-70.4v41.25h57.2l-1.925 33h-55.275V273H380.25l.003-60.303c5.371-18.044 8.269-37.26 8.269-57.197 0-19.937-2.898-39.153-8.27-57.197L380.25 87.1h110.825Zm36.15 23.1c12.1 0 22.275-9.9 22.275-21.725 0-12.375-10.45-21.45-22.275-21.45S504.95 76.1 504.95 88.475c0 12.1 10.175 21.725 22.275 21.725ZM507.7 273h39.325V129.175H507.7V273Zm65.7 0h39.05v-91.85c0-12.925 7.15-22.275 19.525-22.275 6.6 0 13.475 1.375 19.525 3.025l7.425-31.9c-8.25-2.75-18.15-4.4-27.225-4.4-32.725 0-58.3 22.275-58.3 55.55V273Zm94-58.575c0 40.425 25.85 62.15 64.35 62.15 19.25 0 31.35-2.75 47.025-8.525l-7.7-31.625c-12.65 4.125-25.575 6.875-39.325 6.875-16.775 0-25.3-9.35-25.3-28.875V212.5h78.375v-31.35c0-32.725-26.4-55.55-58.85-55.55S667.4 146.775 667.4 186.375v28.05ZM706.45 185v-3.85c0-12.65 7.975-22.275 19.525-22.275 12.375 0 19.525 9.9 19.525 22.275V185h-39.05Zm99.4 31.35c0 37.95 27.775 60.225 60.5 60.225 32.45 0 60.225-22.275 60.225-60.225V186.1c0-40.7-27.775-60.5-56.925-60.5-9.075 0-18.7 3.3-24.475 6.6V68.125L805.85 73.35v143Zm39.325-1.375v-51.15c6.875-2.75 13.75-4.95 20.9-4.95 11.825 0 21.175 7.7 21.175 28.6v27.5c0 18.975-9.075 28.325-20.9 28.325-12.1 0-21.175-9.35-21.175-28.325ZM950.275 273h39.05v-91.85c0-12.925 7.15-22.275 19.525-22.275 6.6 0 13.475 1.375 19.525 3.025l7.425-31.9c-8.25-2.75-18.15-4.4-27.225-4.4-32.725 0-58.3 22.275-58.3 55.55V273Zm122.2-162.8c12.1 0 22.275-9.9 22.275-21.725 0-12.375-10.45-21.45-22.275-21.45S1050.2 76.1 1050.2 88.475c0 12.1 10.175 21.725 22.275 21.725ZM1052.95 273h39.325V129.175h-39.325V273Zm62.4-56.65c0 37.95 27.775 60.225 60.225 60.225S1235.8 254.3 1235.8 216.35V71.7h-39.325v60.5c-5.775-3.3-15.4-6.6-24.2-6.6-29.15 0-56.925 19.8-56.925 60.5v30.25Zm39.05-1.375v-27.5c0-20.9 9.35-28.6 21.45-28.6 6.875 0 14.025 2.2 20.625 4.95v51.15c0 18.975-8.8 28.325-20.9 28.325-12.1 0-21.175-9.35-21.175-28.325Zm108.725 75.9-9.35 29.7c19.25 9.35 38.5 14.025 58.3 14.025 39.875 0 65.175-16.225 65.175-45.65 0-41.25-74.25-33.825-74.25-44 0-1.1.275-1.925.55-2.75 3.575.55 7.425.825 11.275.825 31.625 0 54.45-21.175 54.45-51.975v-13.2c0-9.9-2.475-18.975-6.875-26.675l14.85-.55 2.475-25.025-44.55 3.3c-6.325-2.2-13.2-3.3-20.625-3.3-31.35 0-54.45 21.175-54.45 52.25v13.2c0 17.875 7.7 32.45 20.35 41.525-4.95 4.675-8.8 11.55-8.8 18.975 0 38.225 65.725 26.4 65.725 39.875 0 7.425-9.9 11-26.125 11s-32.45-4.675-48.125-11.55Zm51.7-80.3c-12.1 0-16.225-8.8-16.225-19.525v-13.2l.006-.681c.173-10.391 4.37-18.294 15.944-18.294 11.971 0 16.136 8.075 16.224 18.634l.001 13.541c0 10.725-3.85 19.525-15.95 19.525Zm81.875 3.85c0 40.425 25.85 62.15 64.35 62.15 19.25 0 31.35-2.75 47.025-8.525l-7.7-31.625c-12.65 4.125-25.575 6.875-39.325 6.875-16.775 0-25.3-9.35-25.3-28.875V212.5h78.375v-31.35c0-32.725-26.4-55.55-58.85-55.55s-58.575 21.175-58.575 60.775v28.05ZM1435.75 185v-3.85c0-12.65 7.975-22.275 19.525-22.275 12.375 0 19.525 9.9 19.525 22.275V185h-39.05ZM212.299 0C175.03 0 140.987 14.671 115 38.877c.36.724.637 1.462.833 2.216l.32 1.214c1.692 6.333 3.153 10.408 4.527 13.798a213.535 213.535 0 0 1 3.686 18.49c1.32 8.577-3.338 29.269-18.74 44.027-21.02 20.141-23.835 12.187-44.958 35.378-22.034 24.19-9.936 62.523 36.292 115-8.36-38.287 4.49-68.785 38.551-91.495 37.011-24.678 48.233-68.19 29.725-104.138-3.452-6.704-8.747-12.73-15.885-18.074 18.571-15.646 41.2-24.765 64.68-24.765 57.623 0 110.12 54.924 110.12 126.472s-52.497 126.472-110.12 126.472a92.06 92.06 0 0 1-17.765-1.74c6.547-15.6 16.007-28.787 28.381-39.562l.704-.607c45.653-39.074 45.653-83.02 21.964-131.645-9.717-19.945-31.596-33.25-65.636-39.918 3.234 10.299 6.038 23.605 8.413 39.918l.098.718c1.542 12.067.147 40.933-19.172 60.496-26.904 27.245-47.538 28.945-60.113 70.43-9.407 31.035 16.025 75.515 76.297 133.438-2.79-23.508-2.615-44.563.523-63.164A139.983 139.983 0 0 0 212.299 314C293.872 314 360 243.709 360 157S293.872 0 212.299 0Zm-146.1 13.84c1.95 9.65 3.07 19.354 3.36 29.115.206 6.942-5.494 22.926-19.109 33.155l-.947.704c-7.299 5.379-11.879 7.501-16.05 9.27l-2.053.863-1.352.578c-4.732 2.058-9.763 4.704-18.59 12.325-19.777 17.077-13.952 48.702 17.474 94.875-2.846-30.913 9.998-53.744 38.53-68.495l.87-.444c31.665-16.01 44.78-49.487 33.655-79.839-4.563-12.45-16.493-23.152-35.788-32.106Z"/></svg>