<svg xmlns="http://www.w3.org/2000/svg" width="360" height="375" viewBox="0 0 360 375"><title>favicon</title><path fill="#36656B" fill-rule="evenodd" d="M212.299 0C175.03 0 140.987 14.671 115 38.877c.36.724.637 1.462.833 2.216 1.829 7.035 3.388 11.41 4.847 15.012a213.535 213.535 0 0 1 3.686 18.49c1.32 8.577-3.338 29.269-18.74 44.027-21.02 20.141-23.835 12.187-44.958 35.378-22.034 24.19-9.936 62.523 36.292 115-8.36-38.287 4.49-68.785 38.551-91.495 37.011-24.678 48.233-68.19 29.725-104.138-3.452-6.704-8.747-12.73-15.885-18.074 18.571-15.646 41.2-24.765 64.68-24.765 57.623 0 110.12 54.924 110.12 126.472s-52.497 126.472-110.12 126.472a92.06 92.06 0 0 1-17.765-1.74c6.67-15.894 16.365-29.284 29.085-40.17 45.653-39.073 45.653-83.02 21.964-131.644-9.717-19.945-31.596-33.25-65.636-39.918 3.234 10.299 6.038 23.605 8.413 39.918 1.69 11.603.639 41.252-19.074 61.214-26.904 27.245-47.538 28.945-60.113 70.43-9.407 31.035 16.025 75.515 76.297 133.438-2.79-23.508-2.615-44.563.523-63.164A139.983 139.983 0 0 0 212.299 314C293.872 314 360 243.709 360 157S293.872 0 212.299 0Zm-146.1 13.84c1.95 9.65 3.07 19.354 3.36 29.115.206 6.942-5.494 22.926-19.109 33.155-8.176 6.142-13.035 8.306-17.528 10.197l-.915.384-.607.256-.607.257C25.836 89.32 20.75 91.827 11.46 99.85c-19.778 17.077-13.953 48.702 17.473 94.875-2.874-31.225 10.259-54.205 39.4-68.94 31.665-16.01 44.78-49.486 33.655-79.838-4.563-12.45-16.493-23.152-35.788-32.106Z"/></svg>