<svg xmlns="http://www.w3.org/2000/svg" width="24" height="19" viewBox="0 0 24 19"><title>favicon</title><path fill="#040F2E" fill-rule="nonzero" d="M22 4c0 .364.295.659.659.659H23a1 1 0 0 1 0 2h-.341c-.228 0-.448-.029-.659-.083V12h1a1 1 0 0 1 0 2h-1v4a1 1 0 0 1-1 1h-3a1 1 0 0 1-1-1v-4H7v4a1 1 0 0 1-1 1H3a1 1 0 0 1-1-1v-4H1a1 1 0 0 1 0-2h1V5.92c-.208.052-.425.08-.649.08H1.01a1 1 0 1 1 0-2h.341A.659.659 0 0 0 2 3.456V1a1 1 0 1 1 2 0v1h1V1a1 1 0 1 1 2 0v1.8a5.462 5.462 0 0 0 10-.001V1a1 1 0 0 1 2 0v1h1V1a1 1 0 0 1 2 0v3Zm-5 8V6.14a7.46 7.46 0 0 1-2 1.293V12h2Zm-4 0V7.997a7.415 7.415 0 0 1-2 0V12h2Zm-4 0V7.433a7.481 7.481 0 0 1-2-1.291V12h2Zm-4 0V4H4v8h1Zm0 2H4v3h1v-3Zm15-2V4h-1v8h1Zm0 2h-1v3h1v-3Z"/></svg>